<svg xmlns="http://www.w3.org/2000/svg" width="744.09" height="1052.4" version="1.1"><metadata/><g fill="#777"><path fill="#777" d="m7996.1,1617.5s-160,301.11-160,480c0,160,80,240,160,240s160-80,160-240-160-480-160-480z" transform="matrix(0.11062055,0,0,0.10180633,-784.53173,-145.76658)"/></g><g fill="#777"><path fill="#777" d="m7996.1,1617.5s-160,301.11-160,480c0,160,80,240,160,240s160-80,160-240-160-480-160-480z" transform="matrix(0.03418363,-0.1052064,0.09682358,0.03145988,-416.19775,871.92299)"/></g><g fill="#777"><path fill="#777" d="m7996.1,1617.5s-160,301.11-160,480c0,160,80,240,160,240s160-80,160-240-160-480-160-480z" transform="matrix(-0.08949391,-0.06502113,0.05984026,-0.08236305,665.5039,836.09989)"/></g><g fill="#777"><path fill="#777" d="m7996.1,1617.5s-160,301.11-160,480c0,160,80,240,160,240s160-80,160-240-160-480-160-480z" transform="matrix(-0.08949391,0.06502113,-0.05984026,-0.08236305,965.69838,-203.72944)"/></g><g fill="#ff5a11"><path fill="#ff5a11" d="m7996.1,1617.5s-160,301.11-160,480c0,160,80,240,160,240s160-80,160-240-160-480-160-480z" transform="matrix(0.03418363,0.1052064,-0.09682358,0.03145989,69.527121,-810.55625)"/></g></svg>