<svg xmlns="http://www.w3.org/2000/svg" width="744.09" height="1052.4" version="1.1"><metadata/><text x="160.881" y="145.331" fill="#ff5a11" font-family="Ubuntu" font-size="69.247" font-stretch="normal" font-style="normal" font-variant="normal" font-weight="normal" letter-spacing="0" line-height="125%" text-anchor="start" word-spacing="0" writing-mode="lr-tb" xml:space="preserve" style="text-align:start"><tspan x="160.881" y="145.331"><tspan fill="#c8c8c8" font-family="Ubuntu" font-size="69.247" font-stretch="normal" font-style="normal" font-variant="normal" font-weight="normal" line-height="125%" text-anchor="start" writing-mode="lr-tb" style="text-align:start">apple</tspan>seed</tspan></text><g fill="#c8c8c8"><path fill="#c8c8c8" d="m7996.1,1617.5s-160,301.11-160,480c0,160,80,240,160,240s160-80,160-240-160-480-160-480z" transform="matrix(0.11062055,0,0,0.10180633,-790.27366,-155.99777)"/></g><g fill="#c8c8c8"><path fill="#c8c8c8" d="m7996.1,1617.5s-160,301.11-160,480c0,160,80,240,160,240s160-80,160-240-160-480-160-480z" transform="matrix(0.03418363,-0.1052064,0.09682358,0.03145988,-421.93976,861.6918)"/></g><g fill="#c8c8c8"><path fill="#c8c8c8" d="m7996.1,1617.5s-160,301.11-160,480c0,160,80,240,160,240s160-80,160-240-160-480-160-480z" transform="matrix(-0.08949391,-0.06502113,0.05984026,-0.08236305,659.76189,825.8687)"/></g><g fill="#c8c8c8"><path fill="#c8c8c8" d="m7996.1,1617.5s-160,301.11-160,480c0,160,80,240,160,240s160-80,160-240-160-480-160-480z" transform="matrix(-0.08949391,0.06502113,-0.05984026,-0.08236305,959.95637,-213.96063)"/></g><g fill="#ff5a11"><path fill="#ff5a11" d="m7996.1,1617.5s-160,301.11-160,480c0,160,80,240,160,240s160-80,160-240-160-480-160-480z" transform="matrix(0.03418363,0.1052064,-0.09682358,0.03145989,63.785113,-820.78746)"/></g><text x="156.96" y="179.994" fill="#777" font-family="Ubuntu" font-size="18.874" font-stretch="normal" font-style="normal" font-variant="normal" font-weight="normal" letter-spacing="0" line-height="125%" text-anchor="start" transform="scale(1.0392351,0.96224618)" word-spacing="0" writing-mode="lr-tb" xml:space="preserve" style="text-align:start"><tspan x="156.96" y="179.994" fill="#777" font-weight="bold">open source production rendering</tspan></text></svg>